<?xml version="1.0" encoding="utf-8"?>
<!-- Generator: Adobe Illustrator 20.1.0, SVG Export Plug-In . SVG Version: 6.00 Build 0)  -->
<svg version="1.1" xmlns="http://www.w3.org/2000/svg" xmlns:xlink="http://www.w3.org/1999/xlink" x="0px" y="0px"
	 viewBox="0 0 1000 1000" style="enable-background:new 0 0 1000 1000;" xml:space="preserve">
<g id="Layer_5">
	<rect x="-53.5" y="-53.5" style="fill:#FFFFFF;" width="1107" height="1107"/>
</g>
<g id="Capa_3">
	<g>
		<g>
			<g>
				<path style="fill:#33343A;" d="M778.6,579.6c-7.6,0-13.9-6.2-13.9-13.9V434.3c0-7.1,5.5-13.2,12.6-13.8c0.4,0,0.7-0.1,1.1-0.1
					h29.9c5.4,0,9.8,4.4,9.8,9.8c0,5.4-4.4,9.8-9.8,9.8h-15.8v60.7h15.8c5.4,0,9.8,4.4,9.8,9.8c0,5.4-4.4,9.8-9.8,9.8h-15.8v45.4
					C792.5,573.4,786.3,579.6,778.6,579.6z M778.5,427.4c-0.1,0-0.2,0-0.3,0c0,0-0.1,0-0.1,0c-3.5,0.3-6.3,3.3-6.3,6.8v131.4
					c0,3.8,3.1,6.9,6.9,6.9s6.9-3.1,6.9-6.9v-48.9c0-1.9,1.6-3.5,3.5-3.5h19.3c1.5,0,2.8-1.3,2.8-2.8c0-1.5-1.3-2.8-2.8-2.8H789
					c-1.9,0-3.5-1.6-3.5-3.5v-67.7c0-1.9,1.6-3.5,3.5-3.5h19.3c1.5,0,2.8-1.3,2.8-2.8c0-1.5-1.3-2.8-2.8-2.8H778.5z"/>
			</g>
			<g>
				<path style="fill:#33343A;" d="M814.6,449.1H789c-1.9,0-3.5-1.6-3.5-3.5s1.6-3.5,3.5-3.5h25.6c1.9,0,3.5,1.6,3.5,3.5
					S816.6,449.1,814.6,449.1z"/>
			</g>
			<g>
				<path style="fill:#33343A;" d="M814.6,461.5H789c-1.9,0-3.5-1.6-3.5-3.5s1.6-3.5,3.5-3.5h25.6c1.9,0,3.5,1.6,3.5,3.5
					S816.6,461.5,814.6,461.5z"/>
			</g>
			<g>
				<path style="fill:#33343A;" d="M814.6,473.9H789c-1.9,0-3.5-1.6-3.5-3.5s1.6-3.5,3.5-3.5h25.6c1.9,0,3.5,1.6,3.5,3.5
					S816.6,473.9,814.6,473.9z"/>
			</g>
			<g>
				<path style="fill:#33343A;" d="M814.6,486.3H789c-1.9,0-3.5-1.6-3.5-3.5s1.6-3.5,3.5-3.5h25.6c1.9,0,3.5,1.6,3.5,3.5
					S816.6,486.3,814.6,486.3z"/>
			</g>
			<g>
				<path style="fill:#33343A;" d="M814.6,498.7H789c-1.9,0-3.5-1.6-3.5-3.5s1.6-3.5,3.5-3.5h25.6c1.9,0,3.5,1.6,3.5,3.5
					S816.6,498.7,814.6,498.7z"/>
			</g>
		</g>
		<g>
			<g>
				<path style="fill:#33343A;" d="M842.7,579.6c-12.5,0-22.7-10.2-22.7-22.7s10.2-22.7,22.7-22.7c12.5,0,22.7,10.2,22.7,22.7
					S855.2,579.6,842.7,579.6z M842.7,541.2c-8.7,0-15.7,7-15.7,15.7s7,15.7,15.7,15.7s15.7-7,15.7-15.7S851.3,541.2,842.7,541.2z"
					/>
			</g>
			<g>
				<path style="fill:#33343A;" d="M846.7,541.2c-0.5,0-0.9-0.1-1.4-0.3c-1.8-0.8-2.6-2.8-1.9-4.6l44.9-106.5
					c0.8-1.8,2.8-2.6,4.6-1.9c1.8,0.8,2.6,2.8,1.9,4.6l-44.9,106.5C849.4,540.4,848.1,541.2,846.7,541.2z"/>
			</g>
			<g>
				<path style="fill:#33343A;" d="M891.6,579.6c-12.5,0-22.7-10.2-22.7-22.7s10.2-22.7,22.7-22.7c12.5,0,22.7,10.2,22.7,22.7
					S904.2,579.6,891.6,579.6z M891.6,541.2c-8.7,0-15.7,7-15.7,15.7s7,15.7,15.7,15.7s15.7-7,15.7-15.7S900.3,541.2,891.6,541.2z"
					/>
			</g>
			<g>
				<path style="fill:#33343A;" d="M887.6,541.2c-1.4,0-2.7-0.8-3.2-2.1l-44.9-106.5c-0.8-1.8,0.1-3.8,1.9-4.6
					c1.8-0.8,3.8,0.1,4.6,1.9l44.9,106.5c0.8,1.8-0.1,3.8-1.9,4.6C888.5,541.1,888.1,541.2,887.6,541.2z"/>
			</g>
		</g>
	</g>
	<g>
		<g>
			<path style="fill:#33343A;" d="M192.5,501c-4,0-7.7-1.2-10.9-3.5c-3.1,2.3-6.9,3.5-10.9,3.5c-3.7,0-7.3-1.1-10.3-3.2
				c-3,2.1-6.6,3.2-10.3,3.2c-10.2,0-18.5-8.3-18.5-18.5s8.3-18.5,18.5-18.5c0.6,0,1.1,0,1.6,0.1c-0.1-0.8-0.1-1.5-0.1-2.3
				c0-10.2,8.3-18.5,18.5-18.5c7.2,0,13.6,4.1,16.7,10.5c5.7,1.4,10.2,5.7,11.7,11.3c7.4,2.5,12.5,9.6,12.5,17.5
				C211.1,492.7,202.8,501,192.5,501z M181.7,489.3c1,0,1.9,0.4,2.5,1.1c2.2,2.3,5.2,3.6,8.4,3.6c6.4,0,11.5-5.2,11.5-11.5
				c0-5.5-3.9-10.2-9.2-11.3c-1.5-0.3-2.6-1.5-2.8-3c-0.5-4.2-3.9-7.5-8.1-7.9c-1.4-0.1-2.5-1-3-2.3c-1.6-4.6-6-7.8-10.9-7.8
				c-6.4,0-11.5,5.2-11.5,11.5c0,2,0.5,4,1.5,5.7c0.8,1.4,0.6,3.1-0.5,4.2c-1.1,1.1-2.8,1.4-4.2,0.7c-1.7-0.9-3.5-1.3-5.4-1.3
				c-6.4,0-11.5,5.2-11.5,11.5s5.2,11.5,11.5,11.5c3,0,5.8-1.1,7.9-3.2c1.4-1.3,3.5-1.3,4.8,0c2.2,2,5,3.2,7.9,3.2
				c3.2,0,6.1-1.3,8.4-3.6C179.8,489.7,180.7,489.3,181.7,489.3z"/>
		</g>
		<g>
			<polygon style="fill:#FFFFFF;" points="249.7,553.4 91.8,553.4 131.8,486.5 209.7,486.5 			"/>
			<path style="fill:#33343A;" d="M249.7,556.9H91.8c-1.3,0-2.4-0.7-3-1.8c-0.6-1.1-0.6-2.4,0-3.5l40-66.9c0.6-1.1,1.8-1.7,3-1.7
				h77.9c1.2,0,2.4,0.6,3,1.7l40,66.9c0.6,1.1,0.7,2.4,0,3.5C252.1,556.2,251,556.9,249.7,556.9z M98,549.9h145.6L207.7,490h-73.9
				L98,549.9z"/>
		</g>
		<g>
			<path style="fill:#33343A;" d="M196.8,540c-5.5,0-10.1-3.6-11.6-8.6h-27.8c-1.5,5-6.1,8.6-11.6,8.6c-6.7,0-12.1-5.4-12.1-12.1
				c0-3,1.1-5.8,3-8c-1.9-2.2-3-5-3-8c0-6.7,5.4-12.1,12.1-12.1c5.5,0,10.1,3.6,11.6,8.6h27.8c1.5-5,6.1-8.6,11.6-8.6
				c6.7,0,12.1,5.4,12.1,12.1c0,3-1.1,5.8-3,8c1.9,2.2,3,5,3,8C209,534.6,203.5,540,196.8,540z M154.4,524.4h33.8
				c1.9,0,3.5,1.6,3.5,3.5c0,2.8,2.3,5.1,5.1,5.1c2.8,0,5.1-2.3,5.1-5.1c0-2.1-1.3-4-3.2-4.8c-1.3-0.5-2.2-1.8-2.2-3.2
				c0-1.4,0.9-2.7,2.2-3.2c2-0.8,3.2-2.7,3.2-4.8c0-2.8-2.3-5.1-5.1-5.1c-2.8,0-5.1,2.3-5.1,5.1c0,1.9-1.6,3.5-3.5,3.5h-33.8
				c-1.9,0-3.5-1.6-3.5-3.5c0-2.8-2.3-5.1-5.1-5.1s-5.1,2.3-5.1,5.1c0,2.1,1.3,4,3.2,4.8c1.3,0.5,2.2,1.8,2.2,3.2
				c0,1.4-0.9,2.7-2.2,3.2c-2,0.8-3.2,2.7-3.2,4.8c0,2.8,2.3,5.1,5.1,5.1s5.1-2.3,5.1-5.1C150.9,526,152.5,524.4,154.4,524.4z"/>
		</g>
	</g>
	<g>
		<g>
			<path style="fill:#33343A;" d="M231.5,273.6H110c-1.9,0-3.5-1.6-3.5-3.5v-94.5c0-1,0.4-2,1.2-2.7l60.7-51.7
				c1.3-1.1,3.2-1.1,4.5,0l60.7,51.7c0.8,0.7,1.2,1.6,1.2,2.7v94.5C235,272,233.4,273.6,231.5,273.6z M113.5,266.6H228v-89.3
				l-57.2-48.7l-57.2,48.7V266.6z"/>
		</g>
		<g>
			<path style="fill:#33343A;" d="M95.7,188.7c-0.3,0-0.6,0-0.9,0c-2.7-0.2-5.1-1.5-6.8-3.5c-1.7-2.1-2.5-4.7-2.3-7.3
				c0.2-2.7,1.5-5.1,3.5-6.8l74.9-63.2c1.8-1.5,4.2-2.4,6.6-2.3c2.4,0,4.8,0.8,6.6,2.3l74.9,63.2c2,1.7,3.3,4.1,3.5,6.8
				c0.2,2.7-0.6,5.3-2.3,7.3c-1.7,2.1-4.1,3.3-6.8,3.5c-2.7,0.2-5.3-0.6-7.3-2.3l-68.6-57.8l-68.6,57.8
				C100.4,187.9,98.1,188.7,95.7,188.7z M170.8,120.4c0.8,0,1.6,0.3,2.3,0.8l70.8,59.7c0.6,0.5,1.4,0.8,2.2,0.7
				c0.8-0.1,1.6-0.5,2.1-1.1c1.1-1.3,0.9-3.2-0.4-4.3c0,0,0,0,0,0l-74.9-63.2c-0.7-0.6-1.5-0.7-2-0.7c0,0-0.1,0-0.1,0
				c-0.5,0-1.3,0.1-2,0.7l-74.9,63.2c-0.6,0.5-1,1.3-1.1,2.1c-0.1,0.8,0.2,1.6,0.7,2.2c0.5,0.6,1.3,1,2.1,1.1
				c0.8,0.1,1.6-0.2,2.2-0.7l70.8-59.7C169.2,120.7,170,120.4,170.8,120.4z"/>
		</g>
		<g>
			<path style="fill:#33343A;" d="M193.7,273.6h-45.9c-1.9,0-3.5-1.6-3.5-3.5v-62c0-14.6,11.9-26.4,26.4-26.4s26.4,11.9,26.4,26.4
				v62C197.2,272,195.6,273.6,193.7,273.6z M151.3,266.6h38.9v-58.5c0-10.7-8.7-19.4-19.4-19.4s-19.4,8.7-19.4,19.4V266.6z"/>
		</g>
	</g>
	<g>
		<g>
			<path style="fill:#33343A;" d="M839.6,212.5c-16.4,0-31.9-4.1-43.6-11.5c-12.2-7.7-18.9-18.1-18.9-29.3s6.7-21.6,18.9-29.3
				c11.7-7.4,27.2-11.4,43.6-11.4s31.9,4.1,43.6,11.4c12.2,7.7,18.9,18.1,18.9,29.3c0,11.2-6.7,21.6-18.9,29.3
				C871.5,208.4,856,212.5,839.6,212.5z M839.6,138c-30.7,0-55.6,15.1-55.6,33.8s24.9,33.8,55.6,33.8c30.7,0,55.6-15.1,55.6-33.8
				S870.2,138,839.6,138z"/>
		</g>
		<g>
			<path style="fill:#33343A;" d="M839.6,202.3c-27.6,0-49.2-13.4-49.2-30.5s21.6-30.5,49.2-30.5c27.6,0,49.2,13.4,49.2,30.5
				S867.1,202.3,839.6,202.3z M839.6,148.2c-22.9,0-42.2,10.8-42.2,23.5s19.3,23.5,42.2,23.5c22.9,0,42.2-10.8,42.2-23.5
				S862.4,148.2,839.6,148.2z"/>
		</g>
		<g>
			<path style="fill:#33343A;" d="M839.6,248c-7,0-12.8-5.7-12.8-12.8v-11.5c0-7,5.7-12.8,12.8-12.8s12.8,5.7,12.8,12.8v11.5
				C852.3,242.3,846.6,248,839.6,248z M839.6,218c-3.2,0-5.8,2.6-5.8,5.8v11.5c0,3.2,2.6,5.8,5.8,5.8s5.8-2.6,5.8-5.8v-11.5
				C845.3,220.6,842.7,218,839.6,218z"/>
		</g>
		<g>
			<path style="fill:#33343A;" d="M839.6,218c-1.9,0-3.5-1.6-3.5-3.5v-21c0-1.9,1.6-3.5,3.5-3.5s3.5,1.6,3.5,3.5v21
				C843.1,216.4,841.5,218,839.6,218z"/>
		</g>
	</g>
	<g>
		<g>
			<path style="fill:#33343A;" d="M872.6,878.6h-66.1c-0.6,0-1.2-0.2-1.7-0.4c-22.8-12.6-36.9-36.7-36.9-62.6
				c0-22.8,11.1-44.5,29.6-58c0.6-0.4,1.3-0.7,2.1-0.7h80c0.7,0,1.5,0.2,2.1,0.7c18.5,13.5,29.6,35.1,29.6,58
				c0,26-14.1,50-36.9,62.6C873.8,878.5,873.2,878.6,872.6,878.6z M807.4,871.6h64.3c20.1-11.5,32.5-32.9,32.5-56.1
				c0-20.2-9.6-39.5-25.8-51.6h-77.7c-16.2,12.2-25.8,31.4-25.8,51.6C774.9,838.7,787.3,860.1,807.4,871.6z"/>
		</g>
		<g>
			<ellipse style="fill:#FFFFFF;" cx="839.6" cy="760.4" rx="40" ry="7.1"/>
			<path style="fill:#33343A;" d="M839.6,771c-10.9,0-21.2-0.8-28.9-2.1c-10.2-1.8-14.6-4.4-14.6-8.5s4.4-6.7,14.6-8.5
				c7.8-1.4,18-2.1,28.9-2.1s21.2,0.8,28.9,2.1c10.2,1.8,14.6,4.4,14.6,8.5s-4.4,6.7-14.6,8.5C860.7,770.3,850.4,771,839.6,771z
				 M805.1,760.4c4.9,1.7,16.5,3.6,34.4,3.6s29.5-2,34.4-3.6c-4.9-1.7-16.5-3.6-34.4-3.6C821.7,756.7,810.1,758.7,805.1,760.4z
				 M876.5,761.6L876.5,761.6L876.5,761.6z"/>
		</g>
		<g>
			<path style="fill:#33343A;" d="M906.9,808.7H772.2c-1.9,0-3.5-1.6-3.5-3.5s1.6-3.5,3.5-3.5h134.7c1.9,0,3.5,1.6,3.5,3.5
				S908.8,808.7,906.9,808.7z"/>
		</g>
		<g>
			<g>
				<path style="fill:#33343A;" d="M844.6,848.9c-12.7,0-22.6-11.1-23-11.6c-1.2-1.3-1.2-3.3,0-4.6c0.4-0.5,10.3-11.6,23-11.6
					c11.8,0,28.2,4.8,28.2,13.9C872.8,844.1,856.4,848.9,844.6,848.9z M829.2,835c3.1,2.7,9,6.9,15.4,6.9c11.8,0,21.2-4.9,21.2-6.9
					c0-1.9-9.4-6.9-21.2-6.9C838.1,828.1,832.3,832.3,829.2,835z"/>
			</g>
			<g>
				<path style="fill:#33343A;" d="M809.8,847.4c-0.8,0-1.7-0.3-2.3-0.9c-1.2-1-1.5-2.7-0.8-4.1l3.5-7.4l-3.5-7.4
					c-0.7-1.4-0.3-3.1,0.8-4.1c1.2-1,2.9-1.2,4.2-0.4L826,832c1,0.6,1.7,1.8,1.7,3c0,1.2-0.6,2.3-1.7,3l-14.4,8.9
					C811.1,847.2,810.4,847.4,809.8,847.4z"/>
			</g>
		</g>
	</g>
	<g>
		<g>
			<path style="fill:#33343A;" d="M192.9,875.7h-44.3c-1.9,0-3.5-1.6-3.5-3.5v-86.8c0-1.9,1.6-3.5,3.5-3.5h44.3
				c1.9,0,3.5,1.6,3.5,3.5v86.8C196.4,874.1,194.8,875.7,192.9,875.7z M152.1,868.7h37.3v-79.8h-37.3V868.7z"/>
		</g>
		<g>
			<path style="fill:#33343A;" d="M192.9,788.9h-44.3c-1.3,0-2.6-0.8-3.1-2c-0.6-1.2-0.4-2.6,0.4-3.7l15.9-20.2
				c0.7-0.8,1.7-1.3,2.7-1.3H177c1.1,0,2.1,0.5,2.7,1.3l15.9,20.2c0.8,1.1,1,2.5,0.4,3.7C195.5,788.1,194.2,788.9,192.9,788.9z
				 M155.8,781.9h29.8l-10.4-13.2h-9.1L155.8,781.9z"/>
		</g>
		<g>
			<path style="fill:#33343A;" d="M177.1,768.8h-12.6c-1.9,0-3.5-1.6-3.5-3.5v-9.1c0-1.9,1.6-3.5,3.5-3.5h12.6
				c1.9,0,3.5,1.6,3.5,3.5v9.1C180.6,767.2,179.1,768.8,177.1,768.8z M168,761.8h5.6v-2.1H168V761.8z"/>
		</g>
		<g>
			<path style="fill:#33343A;" d="M192.5,850.1h-16.6c-1.9,0-3.5-1.6-3.5-3.5v-38.9c0-1.9,1.6-3.5,3.5-3.5h16.6
				c1.9,0,3.5,1.6,3.5,3.5v38.9C196,848.5,194.4,850.1,192.5,850.1z M179.4,843.1h9.6v-31.9h-9.6V843.1z"/>
		</g>
	</g>
	<g>
		<g>
			<path style="fill:#33343A;" d="M403.6,267.9h-31.1c-14.4,0-26.1-11.7-26.1-26.1v-68.1c0-14.4,11.7-26.1,26.1-26.1h31.1
				c14.4,0,26.1,11.7,26.1,26.1v68.1C429.7,256.2,418,267.9,403.6,267.9z M372.5,154.7c-10.5,0-19.1,8.6-19.1,19.1v68.1
				c0,10.5,8.6,19.1,19.1,19.1h31.1c10.5,0,19.1-8.6,19.1-19.1v-68.1c0-10.5-8.6-19.1-19.1-19.1H372.5z"/>
		</g>
		<g>
			<path style="fill:#33343A;" d="M412.1,241.9h-48c-1.9,0-3.5-1.6-3.5-3.5v-60.7c0-1.9,1.6-3.5,3.5-3.5h48c1.9,0,3.5,1.6,3.5,3.5
				v60.7C415.6,240.3,414,241.9,412.1,241.9z M367.6,234.9h41v-53.7h-41V234.9z"/>
		</g>
		<g>
			<path style="fill:#33343A;" d="M398,198.1h-19.9c-1.9,0-3.5-1.6-3.5-3.5s1.6-3.5,3.5-3.5H398c1.9,0,3.5,1.6,3.5,3.5
				S399.9,198.1,398,198.1z"/>
		</g>
		<g>
			<path style="fill:#33343A;" d="M398,211.5h-19.9c-1.9,0-3.5-1.6-3.5-3.5s1.6-3.5,3.5-3.5H398c1.9,0,3.5,1.6,3.5,3.5
				S399.9,211.5,398,211.5z"/>
		</g>
		<g>
			<path style="fill:#33343A;" d="M398,224.8h-19.9c-1.9,0-3.5-1.6-3.5-3.5s1.6-3.5,3.5-3.5H398c1.9,0,3.5,1.6,3.5,3.5
				S399.9,224.8,398,224.8z"/>
		</g>
		<g>
			<path style="fill:#33343A;" d="M399.7,154.8h-23.3c-1.9,0-3.5-1.6-3.5-3.5v-36.7c0-1.9,1.6-3.5,3.5-3.5h23.3
				c1.9,0,3.5,1.6,3.5,3.5v36.7C403.2,153.2,401.7,154.8,399.7,154.8z M379.9,147.8h16.3v-29.7h-16.3V147.8z"/>
		</g>
		<g>
			<path style="fill:#33343A;" d="M399.7,128.5h-23.3c-1.9,0-3.5-1.6-3.5-3.5s1.6-3.5,3.5-3.5h23.3c1.9,0,3.5,1.6,3.5,3.5
				S401.7,128.5,399.7,128.5z"/>
		</g>
	</g>
	<g>
		<g>
			<path style="fill:#33343A;" d="M660.5,185c-9,0-16.5-6.4-18.1-14.9h-52.2c-1.6,8.5-9.1,14.9-18.1,14.9
				c-10.2,0-18.4-8.3-18.4-18.4c0-5.4,2.3-10.4,6.3-13.9c-3.9-3.4-6.3-8.4-6.3-13.9c0-10.2,8.3-18.4,18.4-18.4
				c9,0,16.5,6.4,18.1,14.9h52.2c1.6-8.5,9.1-14.9,18.1-14.9c10.2,0,18.4,8.3,18.4,18.4c0,5.4-2.3,10.4-6.3,13.9
				c3.9,3.4,6.3,8.4,6.3,13.9C678.9,176.7,670.6,185,660.5,185z M587,163h58.5c1.9,0,3.5,1.6,3.5,3.5c0,6.3,5.1,11.4,11.4,11.4
				s11.4-5.1,11.4-11.4c0-4.7-2.8-8.8-7.2-10.6c-1.3-0.5-2.2-1.8-2.2-3.2s0.9-2.7,2.2-3.2c4.4-1.8,7.2-5.9,7.2-10.6
				c0-6.3-5.1-11.4-11.4-11.4s-11.4,5.1-11.4,11.4c0,1.9-1.6,3.5-3.5,3.5H587c-1.9,0-3.5-1.6-3.5-3.5c0-6.3-5.1-11.4-11.4-11.4
				s-11.4,5.1-11.4,11.4c0,4.7,2.8,8.8,7.2,10.6c1.3,0.5,2.2,1.8,2.2,3.2s-0.9,2.7-2.2,3.2c-4.4,1.8-7.2,5.9-7.2,10.6
				c0,6.3,5.1,11.4,11.4,11.4s11.4-5.1,11.4-11.4C583.5,164.6,585.1,163,587,163z"/>
		</g>
		<g>
			<g>
				<path style="fill:#33343A;" d="M583.9,258.6c-8.1,0-16.6-3.2-23.3-8.7c-7.2-6-11.1-13.7-11.1-21.7s4-15.8,11.1-21.7
					c6.7-5.5,15.1-8.7,23.3-8.7c1.9,0,3.5,1.6,3.5,3.5v53.8C587.4,257.1,585.9,258.6,583.9,258.6z M580.4,205
					c-13.7,1.7-23.9,13.2-23.9,23.2s10.2,21.5,23.9,23.2V205z"/>
			</g>
			<g>
				<path style="fill:#33343A;" d="M679.5,245c-9.3,0-16.8-7.5-16.8-16.8s7.5-16.8,16.8-16.8c1.1,0,2.2,0.6,2.9,1.5
					c0.7,0.9,0.8,2.1,0.4,3.2l-4.3,12.1l4.3,12.1c0.4,1.1,0.2,2.3-0.4,3.2C681.7,244.4,680.7,245,679.5,245z M673.9,220.2
					c-2.5,1.8-4.2,4.7-4.2,8s1.7,6.3,4.2,8l-2.4-6.9c-0.3-0.8-0.3-1.6,0-2.3L673.9,220.2z"/>
			</g>
			<g>
				<path style="fill:#33343A;" d="M666.1,231.7h-82.1c-1.9,0-3.5-1.6-3.5-3.5s1.6-3.5,3.5-3.5h82.1c1.9,0,3.5,1.6,3.5,3.5
					S668,231.7,666.1,231.7z"/>
			</g>
			<g>
				<path style="fill:#33343A;" d="M599.8,249.8c-1.9,0-3.5-1.6-3.5-3.5v-37c0-1.9,1.6-3.5,3.5-3.5s3.5,1.6,3.5,3.5v37
					C603.3,248.3,601.7,249.8,599.8,249.8z"/>
			</g>
			<g>
				<path style="fill:#33343A;" d="M616,245.7c-1.9,0-3.5-1.6-3.5-3.5v-28.8c0-1.9,1.6-3.5,3.5-3.5s3.5,1.6,3.5,3.5v28.8
					C619.5,244.2,617.9,245.7,616,245.7z"/>
			</g>
			<g>
				<path style="fill:#33343A;" d="M632.1,244.3c-1.9,0-3.5-1.6-3.5-3.5v-25.9c0-1.9,1.6-3.5,3.5-3.5s3.5,1.6,3.5,3.5v25.9
					C635.6,242.7,634.1,244.3,632.1,244.3z"/>
			</g>
			<g>
				<path style="fill:#33343A;" d="M648.3,240.8c-1.9,0-3.5-1.6-3.5-3.5v-18.9c0-1.9,1.6-3.5,3.5-3.5s3.5,1.6,3.5,3.5v18.9
					C651.8,239.2,650.2,240.8,648.3,240.8z"/>
			</g>
			<g>
				<path style="fill:#33343A;" d="M571.1,230.6c-4.4,0-8-3.6-8-8s3.6-8,8-8s8,3.6,8,8S575.6,230.6,571.1,230.6z M571.1,221.5
					c-0.6,0-1,0.5-1,1s0.5,1,1,1c0.6,0,1-0.5,1-1S571.7,221.5,571.1,221.5z"/>
			</g>
		</g>
	</g>
	<g>
		<g>
			<g>
				<path style="fill:#33343A;" d="M668.6,885.7c-0.1,0-0.3,0-0.4,0c-0.1,0-0.2,0-0.3,0H563.9c-1.9,0-3.5-1.6-3.5-3.5V768.1
					c0-1.9,1.6-3.5,3.5-3.5h103.9c0.1,0,0.2,0,0.3,0c0.1,0,0.3,0,0.4,0c5.4,0,9.2,6.2,12,19.5c2.3,11,3.6,25.6,3.6,41.1
					c0,15.5-1.3,30.1-3.6,41.1C677.8,879.6,674,885.7,668.6,885.7z M567.4,878.7h99.5c0.5-0.1,1.1-0.2,1.6-0.1
					c3.2-2.2,8.7-21.3,8.7-53.5c0-32.2-5.5-51.3-8.7-53.5c-0.5,0.1-1.1,0.1-1.6-0.1h-99.5V878.7z"/>
			</g>
			<g>
				<ellipse style="fill:#FFFFFF;" cx="563.9" cy="825.2" rx="12.1" ry="57.1"/>
				<path style="fill:#33343A;" d="M563.9,885.7c-5.4,0-9.2-6.2-12-19.5c-2.3-11-3.6-25.6-3.6-41.1c0-15.5,1.3-30.1,3.6-41.1
					c2.8-13.3,6.6-19.5,12-19.5s9.2,6.2,12,19.5c2.3,11,3.6,25.6,3.6,41.1c0,15.5-1.3,30.1-3.6,41.1
					C573.1,879.6,569.3,885.7,563.9,885.7z M563.9,771.7c-3.2,2.5-8.6,21.5-8.6,53.4s5.4,51,8.6,53.4c3.2-2.5,8.6-21.5,8.6-53.4
					S567.2,774.2,563.9,771.7z"/>
			</g>
			<g>
				<path style="fill:#33343A;" d="M668.6,771.6H563.9c-1.9,0-3.5-1.6-3.5-3.5v-19.6c0-1.4,0.9-2.7,2.2-3.2c1.3-0.5,2.8-0.2,3.8,0.8
					l3.9,3.9l6.3-6.3c0.7-0.7,1.5-1,2.5-1h0.9c0.9,0,1.8,0.4,2.5,1l6.3,6.3l6.3-6.3c0.7-0.7,1.5-1,2.5-1h0.9c0.9,0,1.8,0.4,2.5,1
					l6.3,6.3l6.3-6.3c0.7-0.7,1.5-1,2.5-1h0.9c0.9,0,1.8,0.4,2.5,1l6.3,6.3l6.3-6.3c0.7-0.7,1.5-1,2.5-1h0.9c0.9,0,1.8,0.4,2.5,1
					l6.3,6.3l6.3-6.3c0.7-0.7,1.5-1,2.5-1h0.9c0.9,0,1.8,0.4,2.5,1l6.3,6.3l3.9-3.9c1-1,2.5-1.3,3.8-0.8c1.3,0.5,2.2,1.8,2.2,3.2
					v19.6C672.1,770,670.5,771.6,668.6,771.6z M567.4,764.6h97.6V757l-0.4,0.4c-1.4,1.4-3.6,1.4-4.9,0l-6.7-6.7l-6.7,6.7
					c-1.3,1.3-3.6,1.3-4.9,0l-6.7-6.7l-6.7,6.7c-0.7,0.7-1.5,1-2.5,1l0,0c-0.9,0-1.8-0.4-2.5-1l-6.7-6.7l-6.7,6.7
					c-0.7,0.7-1.5,1-2.5,1l0,0c-0.9,0-1.8-0.4-2.5-1l-6.7-6.7l-6.7,6.7c-1.3,1.3-3.6,1.3-4.9,0l-6.7-6.7l-6.7,6.7
					c-1.3,1.3-3.6,1.3-4.9,0l-0.4-0.4V764.6z"/>
			</g>
		</g>
		<g>
			<g>
				<path style="fill:#33343A;" d="M638.1,850.9c-2.9,0-5.8-1.1-8-3.3l-1.2-1.2l-1.2,1.2c-2.1,2.1-5,3.3-8,3.3c-3,0-5.9-1.2-8-3.3
					c-4.4-4.4-4.4-11.7,0-16.1l8.7-8.7c2.3-2.3,5.4-3.5,8.6-3.3c3.2-0.2,6.3,1,8.6,3.3l8.7,8.7c4.4,4.4,4.4,11.7,0,16.1
					C643.9,849.8,641,850.9,638.1,850.9z M628.8,837.9c0.9,0,1.8,0.3,2.5,1l3.6,3.6c1.7,1.7,4.5,1.7,6.2,0c1.7-1.7,1.7-4.5,0-6.2
					l-8.7-8.7c-0.9-0.9-2.1-1.3-3.4-1.3c-0.2,0-0.3,0-0.5,0c-1.3-0.1-2.5,0.4-3.4,1.3l-8.7,8.7c-1.7,1.7-1.7,4.5,0,6.2
					c0.8,0.8,1.9,1.3,3.1,1.3s2.3-0.5,3.1-1.3l3.6-3.6C627.1,838.3,628,837.9,628.8,837.9z"/>
			</g>
			<g>
				<path style="fill:#33343A;" d="M638.4,820.5c-5.6,0-10-5.8-10-13.2s4.4-13.2,10-13.2s10,5.8,10,13.2S644,820.5,638.4,820.5z
					 M638.4,801.1c-1.2,0-3,2.5-3,6.2s1.8,6.2,3,6.2s3-2.5,3-6.2S639.6,801.1,638.4,801.1z"/>
			</g>
			<g>
				<path style="fill:#33343A;" d="M651.7,830.7c-1.6,0-3.1-0.5-4.3-1.5c-3.4-2.8-3.3-8.3,0.2-12.6c1.5-1.8,3.5-3.2,5.5-3.8
					c2.5-0.7,5-0.3,6.8,1.1c1.8,1.5,2.7,3.8,2.4,6.4c-0.2,2.1-1.2,4.3-2.7,6.2l0,0c-1.5,1.8-3.5,3.2-5.5,3.8
					C653.3,830.6,652.5,830.7,651.7,830.7z M655.4,819.5c-0.5,0.1-1.5,0.5-2.4,1.6c-0.9,1.1-1.1,2.1-1.1,2.6
					c0.5-0.1,1.5-0.5,2.4-1.6c0,0,0,0,0,0C655.1,821,655.4,820,655.4,819.5z"/>
			</g>
			<g>
				<path style="fill:#33343A;" d="M619.3,820.5c-5.6,0-10-5.8-10-13.2s4.4-13.2,10-13.2c5.6,0,10,5.8,10,13.2
					S624.9,820.5,619.3,820.5z M619.3,801.1c-1.2,0-3,2.5-3,6.2s1.8,6.2,3,6.2s3-2.5,3-6.2S620.5,801.1,619.3,801.1z"/>
			</g>
			<g>
				<path style="fill:#33343A;" d="M606,830.7c-0.8,0-1.6-0.1-2.4-0.4c-2.1-0.6-4-2-5.5-3.8c0,0,0,0,0,0c-3.5-4.3-3.6-9.8-0.2-12.6
					c1.8-1.5,4.3-1.9,6.8-1.1c2.1,0.6,4,2,5.5,3.8c1.5,1.8,2.5,4,2.7,6.2c0.2,2.6-0.6,4.9-2.4,6.4
					C609.1,830.2,607.6,830.7,606,830.7z M603.4,822.1c0.9,1.1,1.9,1.5,2.4,1.6c0-0.5-0.2-1.6-1.1-2.6c-0.9-1.1-1.9-1.5-2.4-1.6
					C602.3,820,602.6,821,603.4,822.1L603.4,822.1z"/>
			</g>
		</g>
	</g>
	<g>
		<g>
			<path style="fill:#33343A;" d="M441.4,894.6H334.7c-1.9,0-3.5-1.6-3.5-3.5V797c0-20.5,16.7-37.2,37.2-37.2h39.2
				c20.5,0,37.2,16.7,37.2,37.2v94.1C444.9,893,443.3,894.6,441.4,894.6z M338.2,887.6h99.7V797c0-16.7-13.6-30.2-30.2-30.2h-39.2
				c-16.7,0-30.2,13.6-30.2,30.2V887.6z"/>
		</g>
		<g>
			<path style="fill:#33343A;" d="M411.2,894.6h-46.3c-1.9,0-3.5-1.6-3.5-3.5V797c0-21.2,7.8-37.2,18.1-37.2h17
				c10.3,0,18.1,16,18.1,37.2v94.1C414.7,893,413.2,894.6,411.2,894.6z M368.4,887.6h39.3V797c0-18.5-6.6-30.2-11.1-30.2h-17
				c-4.5,0-11.1,11.8-11.1,30.2V887.6z"/>
		</g>
		<g>
			<path style="fill:#33343A;" d="M395.9,766.8h-15.7c-1.9,0-3.5-1.6-3.5-3.5v-18.1c0-6.3,5.1-11.4,11.4-11.4
				c6.3,0,11.4,5.1,11.4,11.4v18.1C399.4,765.2,397.9,766.8,395.9,766.8z M383.7,759.8h8.7v-14.6c0-2.4-2-4.4-4.4-4.4
				c-2.4,0-4.4,2-4.4,4.4V759.8z"/>
		</g>
		<g>
			<path style="fill:#33343A;" d="M456.9,894.6H319.3c-1.9,0-3.5-1.6-3.5-3.5s1.6-3.5,3.5-3.5h137.6c1.9,0,3.5,1.6,3.5,3.5
				S458.8,894.6,456.9,894.6z"/>
		</g>
		<g>
			<path style="fill:#33343A;" d="M441.4,856.1H334.7c-1.9,0-3.5-1.6-3.5-3.5s1.6-3.5,3.5-3.5h106.7c1.9,0,3.5,1.6,3.5,3.5
				S443.3,856.1,441.4,856.1z"/>
		</g>
		<g>
			<path style="fill:#33343A;" d="M441.4,814.4H334.7c-1.9,0-3.5-1.6-3.5-3.5s1.6-3.5,3.5-3.5h106.7c1.9,0,3.5,1.6,3.5,3.5
				S443.3,814.4,441.4,814.4z"/>
		</g>
	</g>
	<g>
		<g>
			<path style="fill:#33343A;" d="M680.3,507.1h-128c-1.9,0-3.5-1.6-3.5-3.5v-39.2c0-1.9,1.6-3.5,3.5-3.5h128c1.9,0,3.5,1.6,3.5,3.5
				v39.2C683.8,505.5,682.2,507.1,680.3,507.1z M555.8,500.1h121v-32.2h-121V500.1z"/>
		</g>
		<g>
			<path style="fill:#33343A;" d="M577.3,493.5c-5.3,0-9.5-4.3-9.5-9.5c0-5.3,4.3-9.5,9.5-9.5s9.5,4.3,9.5,9.5
				C586.8,489.2,582.6,493.5,577.3,493.5z M577.3,481.4c-1.4,0-2.5,1.1-2.5,2.5c0,1.4,1.1,2.5,2.5,2.5s2.5-1.1,2.5-2.5
				C579.8,482.6,578.7,481.4,577.3,481.4z"/>
		</g>
		<g>
			<path style="fill:#33343A;" d="M603.3,493.5c-5.3,0-9.5-4.3-9.5-9.5c0-5.3,4.3-9.5,9.5-9.5c5.3,0,9.5,4.3,9.5,9.5
				C612.8,489.2,608.5,493.5,603.3,493.5z M603.3,481.4c-1.4,0-2.5,1.1-2.5,2.5c0,1.4,1.1,2.5,2.5,2.5s2.5-1.1,2.5-2.5
				C605.8,482.6,604.7,481.4,603.3,481.4z"/>
		</g>
		<g>
			<path style="fill:#33343A;" d="M629.3,493.5c-5.3,0-9.5-4.3-9.5-9.5c0-5.3,4.3-9.5,9.5-9.5c5.3,0,9.5,4.3,9.5,9.5
				C638.8,489.2,634.5,493.5,629.3,493.5z M629.3,481.4c-1.4,0-2.5,1.1-2.5,2.5c0,1.4,1.1,2.5,2.5,2.5s2.5-1.1,2.5-2.5
				C631.8,482.6,630.7,481.4,629.3,481.4z"/>
		</g>
		<g>
			<path style="fill:#33343A;" d="M655.2,493.5c-5.3,0-9.5-4.3-9.5-9.5c0-5.3,4.3-9.5,9.5-9.5c5.3,0,9.5,4.3,9.5,9.5
				C664.8,489.2,660.5,493.5,655.2,493.5z M655.2,481.4c-1.4,0-2.5,1.1-2.5,2.5c0,1.4,1.1,2.5,2.5,2.5s2.5-1.1,2.5-2.5
				C657.8,482.6,656.6,481.4,655.2,481.4z"/>
		</g>
		<g>
			<path style="fill:#33343A;" d="M616.3,518.1c-1.9,0-3.5-1.6-3.5-3.5V492c0-1.9,1.6-3.5,3.5-3.5s3.5,1.6,3.5,3.5v22.7
				C619.8,516.6,618.2,518.1,616.3,518.1z"/>
		</g>
		<g>
			<path style="fill:#33343A;" d="M638.1,539.1c-4.8,0-8.8-3.1-10.3-7.4h-23c-1.5,4.3-5.5,7.4-10.3,7.4c-6,0-10.9-4.9-10.9-10.9
				c0-2.6,0.9-4.9,2.4-6.8c-1.5-1.9-2.4-4.3-2.4-6.8c0-6,4.9-10.9,10.9-10.9c4.8,0,8.8,3.1,10.3,7.4h23c1.5-4.3,5.5-7.4,10.3-7.4
				c6,0,10.9,4.9,10.9,10.9c0,2.6-0.9,4.9-2.4,6.8c1.5,1.9,2.4,4.3,2.4,6.8C648.9,534.3,644,539.1,638.1,539.1z M601.8,524.8h28.8
				c1.9,0,3.5,1.6,3.5,3.5c0,2.1,1.7,3.9,3.9,3.9c2.1,0,3.9-1.7,3.9-3.9c0-1.6-1-3-2.4-3.6c-1.3-0.5-2.2-1.8-2.2-3.2
				c0-1.4,0.9-2.7,2.2-3.2c1.5-0.6,2.4-2,2.4-3.6c0-2.1-1.7-3.9-3.9-3.9c-2.1,0-3.9,1.7-3.9,3.9c0,1.9-1.6,3.5-3.5,3.5h-28.8
				c-1.9,0-3.5-1.6-3.5-3.5c0-2.1-1.7-3.9-3.9-3.9s-3.9,1.7-3.9,3.9c0,1.6,1,3,2.4,3.6c1.3,0.5,2.2,1.8,2.2,3.2
				c0,1.4-0.9,2.7-2.2,3.2c-1.5,0.6-2.4,2-2.4,3.6c0,2.1,1.7,3.9,3.9,3.9s3.9-1.7,3.9-3.9C598.3,526.3,599.9,524.8,601.8,524.8z"/>
		</g>
	</g>
	<g>
		<g>
			<path style="fill:#33343A;" d="M439.9,499.8H336.2c-1.2,0-2.3-0.6-2.9-1.6c-0.6-1-0.7-2.3-0.3-3.3l18.7-41.6
				c0.6-1.3,1.8-2.1,3.2-2.1h66.2c1.4,0,2.6,0.8,3.2,2.1l18.7,41.6c0.5,1.1,0.4,2.3-0.3,3.3C442.2,499.2,441.1,499.8,439.9,499.8z
				 M341.6,492.8h92.8l-15.6-34.6h-61.7L341.6,492.8z"/>
		</g>
		<g>
			<path style="fill:#33343A;" d="M441.4,518.7H334.8c-7.1,0-12.9-5.8-12.9-12.9s5.8-12.9,12.9-12.9h106.6c7.1,0,12.9,5.8,12.9,12.9
				S448.5,518.7,441.4,518.7z M334.8,499.8c-3.3,0-5.9,2.7-5.9,5.9c0,3.3,2.7,5.9,5.9,5.9h106.6c3.3,0,5.9-2.7,5.9-5.9
				c0-3.3-2.7-5.9-5.9-5.9H334.8z"/>
		</g>
		<g>
			<path style="fill:#33343A;" d="M421.2,560.2h-66.2c-1.4,0-2.6-0.8-3.2-2.1L333,516.6c-0.5-1.1-0.4-2.3,0.3-3.3
				c0.6-1,1.8-1.6,2.9-1.6h103.7c1.2,0,2.3,0.6,2.9,1.6c0.6,1,0.7,2.3,0.3,3.3l-18.7,41.6C423.8,559.4,422.6,560.2,421.2,560.2z
				 M357.2,553.2h61.7l15.6-34.6h-92.8L357.2,553.2z"/>
		</g>
		<g>
			<path style="fill:#FFFFFF;" d="M358.4,523L358.4,523c-3.1,0-5.7-2.5-5.7-5.7v-23.3c0-3.1,2.5-5.7,5.7-5.7h0
				c3.1,0,5.7,2.6,5.7,5.7v23.3C364,520.5,361.5,523,358.4,523z"/>
			<path style="fill:#33343A;" d="M358.4,526.5c-5.1,0-9.2-4.1-9.2-9.2v-23.3c0-5.1,4.1-9.2,9.2-9.2c5.1,0,9.2,4.1,9.2,9.2v23.3
				C367.5,522.4,363.4,526.5,358.4,526.5z M358.4,491.9c-1.2,0-2.2,1-2.2,2.2v23.3c0,1.2,1,2.2,2.2,2.2c1.2,0,2.2-1,2.2-2.2v-23.3
				C360.5,492.9,359.5,491.9,358.4,491.9z"/>
		</g>
		<g>
			<path style="fill:#FFFFFF;" d="M417.6,523L417.6,523c-3.1,0-5.7-2.5-5.7-5.7v-23.3c0-3.1,2.5-5.7,5.7-5.7l0,0
				c3.1,0,5.7,2.6,5.7,5.7v23.3C423.3,520.5,420.7,523,417.6,523z"/>
			<path style="fill:#33343A;" d="M417.6,526.5c-5.1,0-9.2-4.1-9.2-9.2v-23.3c0-5.1,4.1-9.2,9.2-9.2c5.1,0,9.2,4.1,9.2,9.2v23.3
				C426.8,522.4,422.6,526.5,417.6,526.5z M417.6,491.9c-1.2,0-2.2,1-2.2,2.2v23.3c0,1.2,1,2.2,2.2,2.2c1.2,0,2.2-1,2.2-2.2v-23.3
				C419.8,492.9,418.8,491.9,417.6,491.9z"/>
		</g>
		<g>
			<rect x="371.5" y="443.3" style="fill:#FFFFFF;" width="33.2" height="11.2"/>
			<path style="fill:#33343A;" d="M404.7,458h-33.2c-1.9,0-3.5-1.6-3.5-3.5v-11.2c0-1.9,1.6-3.5,3.5-3.5h33.2c1.9,0,3.5,1.6,3.5,3.5
				v11.2C408.2,456.4,406.6,458,404.7,458z M375,451h26.2v-4.2H375V451z"/>
		</g>
		<g>
			<path style="fill:#33343A;" d="M365.9,485.9c-1.9,0-3.5-1.6-3.5-3.5v-16c0-1.9,1.6-3.5,3.5-3.5s3.5,1.6,3.5,3.5v16
				C369.4,484.4,367.8,485.9,365.9,485.9z"/>
		</g>
		<g>
			<path style="fill:#33343A;" d="M380.7,485.9c-1.9,0-3.5-1.6-3.5-3.5v-16c0-1.9,1.6-3.5,3.5-3.5s3.5,1.6,3.5,3.5v16
				C384.2,484.4,382.6,485.9,380.7,485.9z"/>
		</g>
		<g>
			<path style="fill:#33343A;" d="M395.4,485.9c-1.9,0-3.5-1.6-3.5-3.5v-16c0-1.9,1.6-3.5,3.5-3.5s3.5,1.6,3.5,3.5v16
				C398.9,484.4,397.4,485.9,395.4,485.9z"/>
		</g>
		<g>
			<path style="fill:#33343A;" d="M410.2,485.9c-1.9,0-3.5-1.6-3.5-3.5v-16c0-1.9,1.6-3.5,3.5-3.5s3.5,1.6,3.5,3.5v16
				C413.7,484.4,412.1,485.9,410.2,485.9z"/>
		</g>
		<g>
			<path style="fill:#33343A;" d="M365.9,548.5c-1.9,0-3.5-1.6-3.5-3.5v-16c0-1.9,1.6-3.5,3.5-3.5s3.5,1.6,3.5,3.5v16
				C369.4,546.9,367.8,548.5,365.9,548.5z"/>
		</g>
		<g>
			<path style="fill:#33343A;" d="M380.7,548.5c-1.9,0-3.5-1.6-3.5-3.5v-16c0-1.9,1.6-3.5,3.5-3.5s3.5,1.6,3.5,3.5v16
				C384.2,546.9,382.6,548.5,380.7,548.5z"/>
		</g>
		<g>
			<path style="fill:#33343A;" d="M395.4,548.5c-1.9,0-3.5-1.6-3.5-3.5v-16c0-1.9,1.6-3.5,3.5-3.5s3.5,1.6,3.5,3.5v16
				C398.9,546.9,397.4,548.5,395.4,548.5z"/>
		</g>
		<g>
			<path style="fill:#33343A;" d="M410.2,548.5c-1.9,0-3.5-1.6-3.5-3.5v-16c0-1.9,1.6-3.5,3.5-3.5s3.5,1.6,3.5,3.5v16
				C413.7,546.9,412.1,548.5,410.2,548.5z"/>
		</g>
	</g>
</g>
</svg>
